<mxfile host="app.diagrams.net" agent="Mozilla/5.0 (Macintosh; Intel Mac OS X 10.15; rv:128.0) Gecko/20100101 Firefox/128.0" version="24.7.6">
  <diagram name="Seite-1" id="druK0AdYgV0rrxd1C6t_">
    <mxGraphModel dx="1434" dy="794" grid="1" gridSize="10" guides="1" tooltips="1" connect="1" arrows="1" fold="1" page="1" pageScale="1" pageWidth="827" pageHeight="1169" math="0" shadow="0">
      <root>
        <mxCell id="0" />
        <mxCell id="1" parent="0" />
        <mxCell id="ieJKX9yTI5mCktCNdGUZ-1" value="DocumentDB" style="sketch=0;points=[[0,0,0],[0.25,0,0],[0.5,0,0],[0.75,0,0],[1,0,0],[0,1,0],[0.25,1,0],[0.5,1,0],[0.75,1,0],[1,1,0],[0,0.25,0],[0,0.5,0],[0,0.75,0],[1,0.25,0],[1,0.5,0],[1,0.75,0]];outlineConnect=0;fontColor=#232F3E;fillColor=#C925D1;strokeColor=#ffffff;dashed=0;verticalLabelPosition=bottom;verticalAlign=top;align=center;html=1;fontSize=12;fontStyle=0;aspect=fixed;shape=mxgraph.aws4.resourceIcon;resIcon=mxgraph.aws4.documentdb_with_mongodb_compatibility;" vertex="1" parent="1">
          <mxGeometry x="30" y="40" width="78" height="78" as="geometry" />
        </mxCell>
        <mxCell id="ieJKX9yTI5mCktCNdGUZ-2" value="SNS&lt;br&gt;Central" style="sketch=0;points=[[0,0,0],[0.25,0,0],[0.5,0,0],[0.75,0,0],[1,0,0],[0,1,0],[0.25,1,0],[0.5,1,0],[0.75,1,0],[1,1,0],[0,0.25,0],[0,0.5,0],[0,0.75,0],[1,0.25,0],[1,0.5,0],[1,0.75,0]];outlineConnect=0;fontColor=#232F3E;fillColor=#E7157B;strokeColor=#ffffff;dashed=0;verticalLabelPosition=bottom;verticalAlign=top;align=center;html=1;fontSize=12;fontStyle=0;aspect=fixed;shape=mxgraph.aws4.resourceIcon;resIcon=mxgraph.aws4.sns;" vertex="1" parent="1">
          <mxGeometry x="320" y="40" width="78" height="78" as="geometry" />
        </mxCell>
        <mxCell id="ieJKX9yTI5mCktCNdGUZ-9" style="edgeStyle=orthogonalEdgeStyle;rounded=0;orthogonalLoop=1;jettySize=auto;html=1;entryX=0.5;entryY=0;entryDx=0;entryDy=0;entryPerimeter=0;" edge="1" parent="1" source="ieJKX9yTI5mCktCNdGUZ-3" target="ieJKX9yTI5mCktCNdGUZ-10">
          <mxGeometry relative="1" as="geometry" />
        </mxCell>
        <mxCell id="ieJKX9yTI5mCktCNdGUZ-3" value="SQS&lt;br&gt;Internal" style="sketch=0;points=[[0,0,0],[0.25,0,0],[0.5,0,0],[0.75,0,0],[1,0,0],[0,1,0],[0.25,1,0],[0.5,1,0],[0.75,1,0],[1,1,0],[0,0.25,0],[0,0.5,0],[0,0.75,0],[1,0.25,0],[1,0.5,0],[1,0.75,0]];outlineConnect=0;fontColor=#232F3E;fillColor=#E7157B;strokeColor=#ffffff;dashed=0;verticalLabelPosition=bottom;verticalAlign=top;align=center;html=1;fontSize=12;fontStyle=0;aspect=fixed;shape=mxgraph.aws4.resourceIcon;resIcon=mxgraph.aws4.sqs;" vertex="1" parent="1">
          <mxGeometry x="490" y="40" width="78" height="78" as="geometry" />
        </mxCell>
        <mxCell id="ieJKX9yTI5mCktCNdGUZ-4" value="ChangeStream&lt;br&gt;Message&lt;br&gt;Schema&lt;br&gt;SNS Forwarder" style="outlineConnect=0;dashed=0;verticalLabelPosition=bottom;verticalAlign=top;align=center;html=1;shape=mxgraph.aws3.lambda_function;fillColor=#F58534;gradientColor=none;" vertex="1" parent="1">
          <mxGeometry x="170" y="43" width="69" height="72" as="geometry" />
        </mxCell>
        <mxCell id="ieJKX9yTI5mCktCNdGUZ-5" style="edgeStyle=orthogonalEdgeStyle;rounded=0;orthogonalLoop=1;jettySize=auto;html=1;entryX=0;entryY=0.5;entryDx=0;entryDy=0;entryPerimeter=0;" edge="1" parent="1" source="ieJKX9yTI5mCktCNdGUZ-1" target="ieJKX9yTI5mCktCNdGUZ-4">
          <mxGeometry relative="1" as="geometry" />
        </mxCell>
        <mxCell id="ieJKX9yTI5mCktCNdGUZ-6" style="edgeStyle=orthogonalEdgeStyle;rounded=0;orthogonalLoop=1;jettySize=auto;html=1;exitX=1;exitY=0.5;exitDx=0;exitDy=0;exitPerimeter=0;entryX=0;entryY=0.5;entryDx=0;entryDy=0;entryPerimeter=0;" edge="1" parent="1" source="ieJKX9yTI5mCktCNdGUZ-4" target="ieJKX9yTI5mCktCNdGUZ-2">
          <mxGeometry relative="1" as="geometry" />
        </mxCell>
        <mxCell id="ieJKX9yTI5mCktCNdGUZ-7" style="edgeStyle=orthogonalEdgeStyle;rounded=0;orthogonalLoop=1;jettySize=auto;html=1;entryX=0;entryY=0.5;entryDx=0;entryDy=0;entryPerimeter=0;" edge="1" parent="1" source="ieJKX9yTI5mCktCNdGUZ-2" target="ieJKX9yTI5mCktCNdGUZ-3">
          <mxGeometry relative="1" as="geometry" />
        </mxCell>
        <mxCell id="ieJKX9yTI5mCktCNdGUZ-14" style="edgeStyle=orthogonalEdgeStyle;rounded=0;orthogonalLoop=1;jettySize=auto;html=1;" edge="1" parent="1" source="ieJKX9yTI5mCktCNdGUZ-8" target="ieJKX9yTI5mCktCNdGUZ-13">
          <mxGeometry relative="1" as="geometry" />
        </mxCell>
        <mxCell id="ieJKX9yTI5mCktCNdGUZ-8" value="Kinesis Firehose Delivery Stream to S3&lt;br&gt;15 min Buffer Interval" style="sketch=0;points=[[0,0,0],[0.25,0,0],[0.5,0,0],[0.75,0,0],[1,0,0],[0,1,0],[0.25,1,0],[0.5,1,0],[0.75,1,0],[1,1,0],[0,0.25,0],[0,0.5,0],[0,0.75,0],[1,0.25,0],[1,0.5,0],[1,0.75,0]];outlineConnect=0;fontColor=#232F3E;fillColor=#8C4FFF;strokeColor=#ffffff;dashed=0;verticalLabelPosition=bottom;verticalAlign=top;align=center;html=1;fontSize=12;fontStyle=0;aspect=fixed;shape=mxgraph.aws4.resourceIcon;resIcon=mxgraph.aws4.kinesis_data_firehose;" vertex="1" parent="1">
          <mxGeometry x="490" y="380" width="78" height="78" as="geometry" />
        </mxCell>
        <mxCell id="ieJKX9yTI5mCktCNdGUZ-11" style="edgeStyle=orthogonalEdgeStyle;rounded=0;orthogonalLoop=1;jettySize=auto;html=1;exitX=0.5;exitY=1;exitDx=0;exitDy=0;exitPerimeter=0;" edge="1" parent="1" source="ieJKX9yTI5mCktCNdGUZ-10" target="ieJKX9yTI5mCktCNdGUZ-8">
          <mxGeometry relative="1" as="geometry" />
        </mxCell>
        <mxCell id="ieJKX9yTI5mCktCNdGUZ-10" value="&lt;div&gt;SQS&lt;br&gt;Consumer to&lt;br&gt;Firehose Stream&lt;br&gt;Forwarder&lt;br&gt;&lt;/div&gt;" style="outlineConnect=0;dashed=0;verticalLabelPosition=bottom;verticalAlign=top;align=center;html=1;shape=mxgraph.aws3.lambda_function;fillColor=#F58534;gradientColor=none;" vertex="1" parent="1">
          <mxGeometry x="494.5" y="190" width="69" height="72" as="geometry" />
        </mxCell>
        <mxCell id="ieJKX9yTI5mCktCNdGUZ-12" value="&lt;h1 style=&quot;margin-top: 0px;&quot;&gt;Links&lt;/h1&gt;&lt;p&gt;- https://hevodata.com/blog/sqs-to-s3/&lt;br&gt;&lt;/p&gt;" style="text;html=1;whiteSpace=wrap;overflow=hidden;rounded=0;" vertex="1" parent="1">
          <mxGeometry x="20" y="710" width="360" height="120" as="geometry" />
        </mxCell>
        <mxCell id="ieJKX9yTI5mCktCNdGUZ-13" value="S3 files&lt;br&gt;(every 15 minutes)&lt;br&gt;&lt;div&gt;with auto-deletion&lt;/div&gt;&lt;div&gt;lifecycle rule after 30 days&lt;br&gt;&lt;/div&gt;" style="sketch=0;points=[[0,0,0],[0.25,0,0],[0.5,0,0],[0.75,0,0],[1,0,0],[0,1,0],[0.25,1,0],[0.5,1,0],[0.75,1,0],[1,1,0],[0,0.25,0],[0,0.5,0],[0,0.75,0],[1,0.25,0],[1,0.5,0],[1,0.75,0]];outlineConnect=0;fontColor=#232F3E;fillColor=#7AA116;strokeColor=#ffffff;dashed=0;verticalLabelPosition=bottom;verticalAlign=top;align=center;html=1;fontSize=12;fontStyle=0;aspect=fixed;shape=mxgraph.aws4.resourceIcon;resIcon=mxgraph.aws4.s3;" vertex="1" parent="1">
          <mxGeometry x="270" y="380" width="78" height="78" as="geometry" />
        </mxCell>
        <mxCell id="ieJKX9yTI5mCktCNdGUZ-18" style="edgeStyle=orthogonalEdgeStyle;rounded=0;orthogonalLoop=1;jettySize=auto;html=1;" edge="1" parent="1" source="ieJKX9yTI5mCktCNdGUZ-15" target="ieJKX9yTI5mCktCNdGUZ-17">
          <mxGeometry relative="1" as="geometry" />
        </mxCell>
        <mxCell id="ieJKX9yTI5mCktCNdGUZ-15" value="Glue Job ETL delta&lt;br&gt;to Iceberg logic" style="sketch=0;points=[[0,0,0],[0.25,0,0],[0.5,0,0],[0.75,0,0],[1,0,0],[0,1,0],[0.25,1,0],[0.5,1,0],[0.75,1,0],[1,1,0],[0,0.25,0],[0,0.5,0],[0,0.75,0],[1,0.25,0],[1,0.5,0],[1,0.75,0]];outlineConnect=0;fontColor=#232F3E;fillColor=#8C4FFF;strokeColor=#ffffff;dashed=0;verticalLabelPosition=bottom;verticalAlign=top;align=center;html=1;fontSize=12;fontStyle=0;aspect=fixed;shape=mxgraph.aws4.resourceIcon;resIcon=mxgraph.aws4.glue;" vertex="1" parent="1">
          <mxGeometry x="270" y="562" width="78" height="78" as="geometry" />
        </mxCell>
        <mxCell id="ieJKX9yTI5mCktCNdGUZ-16" style="edgeStyle=orthogonalEdgeStyle;rounded=0;orthogonalLoop=1;jettySize=auto;html=1;entryX=0.5;entryY=0;entryDx=0;entryDy=0;entryPerimeter=0;" edge="1" parent="1" source="ieJKX9yTI5mCktCNdGUZ-13" target="ieJKX9yTI5mCktCNdGUZ-15">
          <mxGeometry relative="1" as="geometry" />
        </mxCell>
        <mxCell id="ieJKX9yTI5mCktCNdGUZ-17" value="&lt;div&gt;Iceberg table&lt;/div&gt;&lt;div&gt;on S3 dataset&lt;br&gt;&lt;/div&gt;" style="sketch=0;points=[[0,0,0],[0.25,0,0],[0.5,0,0],[0.75,0,0],[1,0,0],[0,1,0],[0.25,1,0],[0.5,1,0],[0.75,1,0],[1,1,0],[0,0.25,0],[0,0.5,0],[0,0.75,0],[1,0.25,0],[1,0.5,0],[1,0.75,0]];outlineConnect=0;fontColor=#232F3E;fillColor=#7AA116;strokeColor=#ffffff;dashed=0;verticalLabelPosition=bottom;verticalAlign=top;align=center;html=1;fontSize=12;fontStyle=0;aspect=fixed;shape=mxgraph.aws4.resourceIcon;resIcon=mxgraph.aws4.s3;" vertex="1" parent="1">
          <mxGeometry x="510" y="562" width="78" height="78" as="geometry" />
        </mxCell>
        <mxCell id="ieJKX9yTI5mCktCNdGUZ-19" value="" style="shape=image;verticalLabelPosition=bottom;labelBackgroundColor=default;verticalAlign=top;aspect=fixed;imageAspect=0;image=https://www.dremio.com/wp-content/uploads/2021/06/iceberg-logo-with-name.png;" vertex="1" parent="1">
          <mxGeometry x="590" y="562" width="66" height="65.46" as="geometry" />
        </mxCell>
      </root>
    </mxGraphModel>
  </diagram>
</mxfile>
